<svg id="Layer_1" data-name="Layer 1" xmlns="http://www.w3.org/2000/svg" xmlns:xlink="http://www.w3.org/1999/xlink" viewBox="0 0 400 100"><defs><style>.cls-1{fill:none;}.cls-2{clip-path:url(#clip-path);}.cls-3{fill:#25408f;}.cls-4{fill:#53b7e8;}.cls-5{fill:#ebebec;}.cls-6{fill:#bcbec0;}</style><clipPath id="clip-path"><rect id="SVGID" class="cls-1" x="4.8" y="4.84" width="389.99" height="90.45"/></clipPath></defs><title>20190506InXiteLogoFormatedV01</title><g class="cls-2"><path class="cls-3" d="M393.28,77.69a1.51,1.51,0,0,1-.32.77.69.69,0,0,1-.51.2,3,3,0,0,1-.95-.31,6.57,6.57,0,0,0-2.74-.66A4.7,4.7,0,0,0,385.35,79,4.22,4.22,0,0,0,384,82.12a4,4,0,0,0,.46,1.91,5.18,5.18,0,0,0,1.33,1.59,26,26,0,0,0,3,1.93,29.37,29.37,0,0,1,2.55,1.58,3.72,3.72,0,0,1,1,1.18,2.69,2.69,0,0,1,.33,1.26,2.56,2.56,0,0,1-.87,1.93,3.3,3.3,0,0,1-2.37.82,4.8,4.8,0,0,1-2.37-.6,4,4,0,0,1-1.61-1.49,8.51,8.51,0,0,1-.84-2.71h-.44v5.77h.44a1.49,1.49,0,0,1,.26-.77.58.58,0,0,1,.47-.19,6.71,6.71,0,0,1,1.48.39c.78.26,1.29.41,1.54.46a7.86,7.86,0,0,0,1.33.11,5.06,5.06,0,0,0,3.68-1.39,4.43,4.43,0,0,0,1.43-3.29,4.3,4.3,0,0,0-.45-1.92,4.7,4.7,0,0,0-1.28-1.6A24.21,24.21,0,0,0,390,85.15a13.23,13.23,0,0,1-3.53-2.48,2.2,2.2,0,0,1-.52-1.41,2.45,2.45,0,0,1,.82-1.79,2.86,2.86,0,0,1,2.06-.79,4.28,4.28,0,0,1,2.13.59,4.11,4.11,0,0,1,1.58,1.57,7.36,7.36,0,0,1,.78,2.67h.44V77.69ZM362.78,94.9,369,80.74V92a3.79,3.79,0,0,1-.27,1.81,1.6,1.6,0,0,1-1.46.64h-.57v.46h6.89v-.46h-.56a1.73,1.73,0,0,1-1.4-.52,3.43,3.43,0,0,1-.34-1.93V81a3.79,3.79,0,0,1,.27-1.81,1.64,1.64,0,0,1,1.47-.65h.56v-.46H369l-5.79,13.17-5.89-13.17h-4.6v.46a3.07,3.07,0,0,1,1.44.25,1.34,1.34,0,0,1,.62.6,4,4,0,0,1,.24,1.61V92a4,4,0,0,1-.26,1.81,1.63,1.63,0,0,1-1.46.64h-.58v.46h5.65v-.46h-.57a1.72,1.72,0,0,1-1.4-.52,3.46,3.46,0,0,1-.33-1.93V80.74l6.27,14.16ZM338.62,79a5.33,5.33,0,0,1,1.69.19,1.89,1.89,0,0,1,.9.76,5.84,5.84,0,0,1,.56,1.82h.47l-.18-3.69H329.55v.46h.57a1.82,1.82,0,0,1,1.44.5,3.72,3.72,0,0,1,.31,2V91.94a6.15,6.15,0,0,1-.13,1.62,1,1,0,0,1-.53.6,2.19,2.19,0,0,1-1.09.28h-.57v.46h12.51l1.4-4.22H343A9.57,9.57,0,0,1,341.46,93a3,3,0,0,1-1.2.79,7.35,7.35,0,0,1-2,.19h-2.75a1.91,1.91,0,0,1-.91-.14.72.72,0,0,1-.33-.38,5,5,0,0,1-.1-1.36V86.55h3.57a3.38,3.38,0,0,1,1.5.25,1.47,1.47,0,0,1,.71.68,7.09,7.09,0,0,1,.34,1.58h.44V83.2h-.44a2.09,2.09,0,0,1-2.55,2.44h-3.57V79Zm-31.94-.92-.19,4h.45a3.76,3.76,0,0,1,.53-1.81,2.23,2.23,0,0,1,1.06-.91,5.51,5.51,0,0,1,1.62-.17h2V92a4,4,0,0,1-.26,1.81,1.64,1.64,0,0,1-1.47.64h-.57v.46h6.88v-.46h-.56a1.75,1.75,0,0,1-1.4-.52A3.48,3.48,0,0,1,314.4,92V79.13h2.28a3.3,3.3,0,0,1,1.62.34,2.49,2.49,0,0,1,1,1.06,5.09,5.09,0,0,1,.36,1.49h.46l-.19-4Zm-12.11-.38a1.43,1.43,0,0,1-.32.77.69.69,0,0,1-.5.2,2.9,2.9,0,0,1-.95-.31,6.61,6.61,0,0,0-2.74-.66A4.68,4.68,0,0,0,286.65,79a4.22,4.22,0,0,0-1.34,3.12,4.08,4.08,0,0,0,.45,1.91,5.22,5.22,0,0,0,1.34,1.59,25.12,25.12,0,0,0,3,1.93,29.37,29.37,0,0,1,2.55,1.58,3.81,3.81,0,0,1,1,1.18,2.69,2.69,0,0,1,.33,1.26,2.58,2.58,0,0,1-.86,1.93,3.3,3.3,0,0,1-2.37.82,4.8,4.8,0,0,1-2.37-.6,4,4,0,0,1-1.61-1.49,8.26,8.26,0,0,1-.84-2.71h-.45v5.77h.45a1.41,1.41,0,0,1,.26-.77.58.58,0,0,1,.47-.19,6.85,6.85,0,0,1,1.48.39c.77.26,1.29.41,1.53.46a8,8,0,0,0,1.33.11,5,5,0,0,0,3.68-1.39,4.4,4.4,0,0,0,1.43-3.29,4.3,4.3,0,0,0-.45-1.92,4.58,4.58,0,0,0-1.28-1.6,23.89,23.89,0,0,0-3.1-1.94,13.05,13.05,0,0,1-3.53-2.48,2.14,2.14,0,0,1-.52-1.41,2.42,2.42,0,0,1,.82-1.79,2.84,2.84,0,0,1,2.05-.79,4.29,4.29,0,0,1,2.14.59,4.11,4.11,0,0,1,1.58,1.57,7.38,7.38,0,0,1,.77,2.67H295V77.69Zm-25.15.84a2.33,2.33,0,0,1,1,.16,1.12,1.12,0,0,1,.5.43,1.09,1.09,0,0,1,.17.62,3.88,3.88,0,0,1-.71,1.74l-3.19,5.18-3.38-5.42a4,4,0,0,1-.73-1.61.87.87,0,0,1,.47-.82,1.94,1.94,0,0,1,1-.28h.36v-.46H258v.46a1.57,1.57,0,0,1,.69.13,4.29,4.29,0,0,1,1.17.74A14.6,14.6,0,0,1,260.9,81l4.45,7v4a3.83,3.83,0,0,1-.26,1.81,1.62,1.62,0,0,1-1.46.64h-.57v.46H270v-.46h-.53a1.79,1.79,0,0,1-1.43-.52,3.34,3.34,0,0,1-.34-1.93V87.77l3.92-6.39a10.47,10.47,0,0,1,1.21-1.74,3.4,3.4,0,0,1,1.09-.82,2.37,2.37,0,0,1,.9-.29h.32v-.46h-5.67Zm-22.85-.84a1.52,1.52,0,0,1-.31.77.69.69,0,0,1-.51.2,2.9,2.9,0,0,1-.95-.31,6.61,6.61,0,0,0-2.74-.66A4.7,4.7,0,0,0,238.65,79a4.22,4.22,0,0,0-1.34,3.12,4,4,0,0,0,.46,1.91,5,5,0,0,0,1.33,1.59,25.12,25.12,0,0,0,3,1.93,29.37,29.37,0,0,1,2.55,1.58,3.81,3.81,0,0,1,1,1.18,2.69,2.69,0,0,1,.33,1.26,2.58,2.58,0,0,1-.86,1.93,3.3,3.3,0,0,1-2.37.82,4.8,4.8,0,0,1-2.37-.6,4,4,0,0,1-1.61-1.49,8.26,8.26,0,0,1-.84-2.71h-.44v5.77h.44a1.41,1.41,0,0,1,.26-.77.58.58,0,0,1,.47-.19,6.71,6.71,0,0,1,1.48.39c.77.26,1.29.41,1.53.46a8,8,0,0,0,1.33.11,5,5,0,0,0,3.68-1.39,4.47,4.47,0,0,0,1-5.21,4.61,4.61,0,0,0-1.29-1.6,23.89,23.89,0,0,0-3.1-1.94,13.05,13.05,0,0,1-3.53-2.48,2.2,2.2,0,0,1-.52-1.41,2.42,2.42,0,0,1,.82-1.79,2.86,2.86,0,0,1,2.06-.79,4.28,4.28,0,0,1,2.13.59,4.11,4.11,0,0,1,1.58,1.57,7.38,7.38,0,0,1,.77,2.67H247V77.69Zm-46.25,3.38a5.74,5.74,0,0,1,.15-1.65,1,1,0,0,1,.51-.6,2.22,2.22,0,0,1,1.09-.29h.59v-.46h-7v.46h.58a2.19,2.19,0,0,1,1.1.3,1.12,1.12,0,0,1,.49.53,6.16,6.16,0,0,1,.15,1.71V91.92a4,4,0,0,1-.28,1.92,1.72,1.72,0,0,1-1.46.6h-.58v.46h7v-.46h-.59a2.22,2.22,0,0,1-1.09-.29,1.07,1.07,0,0,1-.5-.54,5.47,5.47,0,0,1-.16-1.69V86.8h7.54v5.12a3.78,3.78,0,0,1-.3,1.92,1.69,1.69,0,0,1-1.45.6h-.57v.46h6.94v-.46h-.57a2.26,2.26,0,0,1-1.1-.29,1.09,1.09,0,0,1-.49-.54,5.47,5.47,0,0,1-.16-1.69V81.07a6.29,6.29,0,0,1,.14-1.65,1,1,0,0,1,.52-.6,2.2,2.2,0,0,1,1.09-.29h.57v-.46h-6.94v.46h.57a2.11,2.11,0,0,1,1.09.3,1.12,1.12,0,0,1,.51.53,6.16,6.16,0,0,1,.15,1.71v4.81h-7.54Zm-27.41-3-.19,4h.45a3.88,3.88,0,0,1,.53-1.81,2.25,2.25,0,0,1,1.07-.91,5.38,5.38,0,0,1,1.61-.17h2V92a4,4,0,0,1-.26,1.81,1.62,1.62,0,0,1-1.46.64H176v.46h6.89v-.46h-.57a1.76,1.76,0,0,1-1.4-.52,3.58,3.58,0,0,1-.32-1.93V79.13h2.29a3.3,3.3,0,0,1,1.62.34,2.49,2.49,0,0,1,1,1.06,4.84,4.84,0,0,1,.35,1.49h.46l-.18-4Zm-9.18,14.47a3.51,3.51,0,0,1-1.38,1,8.23,8.23,0,0,1-2.62.29h-1.18a7.51,7.51,0,0,1-1.87-.13.83.83,0,0,1-.44-.38,3.51,3.51,0,0,1-.2-1.42V81.34a5.5,5.5,0,0,1,.2-1.9,1.49,1.49,0,0,1,.71-.66,4.54,4.54,0,0,1,1.81-.25v-.46h-7.35v.46H152a1.73,1.73,0,0,1,1.39.55,3.48,3.48,0,0,1,.34,2V91.91a4.27,4.27,0,0,1-.25,1.84,1.63,1.63,0,0,1-1.48.69h-.61v.46H164l1.39-4.56-.4-.09a8.36,8.36,0,0,1-1.24,2.29m-33.54-4.19,2.82-6.8,2.76,6.8Zm6.89,3.34a5.25,5.25,0,0,1,.48,1.72.87.87,0,0,1-.34.7,2.31,2.31,0,0,1-1.31.33v.46h6.4v-.46a2.49,2.49,0,0,1-1.55-.56,6.49,6.49,0,0,1-1.23-2.19l-5.65-14h-.42l-5.71,13.85A7.91,7.91,0,0,1,126.4,94a2.66,2.66,0,0,1-1.32.48v.46h5.11v-.46a3,3,0,0,1-1.53-.37.88.88,0,0,1-.35-.68,4.46,4.46,0,0,1,.41-1.47l1.1-2.65h6.28ZM111.16,79a5.38,5.38,0,0,1,1.69.19,2,2,0,0,1,.9.76,5.89,5.89,0,0,1,.55,1.82h.47l-.18-3.69h-12.5v.46h.57a1.83,1.83,0,0,1,1.44.5,3.83,3.83,0,0,1,.31,2V91.94a6,6,0,0,1-.14,1.62,1,1,0,0,1-.52.6,2.21,2.21,0,0,1-1.09.28h-.57v.46h12.5l1.4-4.22h-.48A9,9,0,0,1,114,93a3.06,3.06,0,0,1-1.19.79,7.4,7.4,0,0,1-2,.19h-2.75a1.88,1.88,0,0,1-.91-.14.74.74,0,0,1-.34-.38,5.7,5.7,0,0,1-.09-1.36V86.55h3.56a3.43,3.43,0,0,1,1.51.25,1.45,1.45,0,0,1,.7.68,6.07,6.07,0,0,1,.34,1.58h.44V83.2h-.44a2.88,2.88,0,0,1-.69,2,2.85,2.85,0,0,1-1.86.43h-3.56V79ZM80.59,81.07a5.86,5.86,0,0,1,.14-1.65,1.06,1.06,0,0,1,.52-.6,2.19,2.19,0,0,1,1.08-.29h.59v-.46H76v.46h.57a2.19,2.19,0,0,1,1.1.3,1.12,1.12,0,0,1,.49.53,5.68,5.68,0,0,1,.16,1.71V91.92A3.94,3.94,0,0,1,78,93.84a1.71,1.71,0,0,1-1.46.6H76v.46h7v-.46h-.59a2.19,2.19,0,0,1-1.08-.29,1.09,1.09,0,0,1-.51-.54,5.94,5.94,0,0,1-.15-1.69V86.8h7.54v5.12a3.78,3.78,0,0,1-.3,1.92,1.72,1.72,0,0,1-1.45.6H85.8v.46h7v-.46h-.58a2.29,2.29,0,0,1-1.1-.29,1.09,1.09,0,0,1-.49-.54,5.82,5.82,0,0,1-.16-1.69V81.07a6.29,6.29,0,0,1,.14-1.65,1,1,0,0,1,.52-.6,2.25,2.25,0,0,1,1.09-.29h.58v-.46h-7v.46h.58a2.13,2.13,0,0,1,1.09.3,1.14,1.14,0,0,1,.5.53,5.68,5.68,0,0,1,.16,1.71v4.81H80.59Z"/><path class="cls-3" d="M378.1,9.54a18,18,0,0,1,5.82.64A6.64,6.64,0,0,1,387,12.79,20.46,20.46,0,0,1,389,19.08h1.61l-.62-12.71H346.82V8h2q3.46,0,4.95,1.71c.72.86,1.08,3.12,1.08,6.8V54.18a20.58,20.58,0,0,1-.48,5.6,3.56,3.56,0,0,1-1.79,2.06,7.73,7.73,0,0,1-3.76,1h-2V64.4h43.12l4.83-14.55h-1.65a32.94,32.94,0,0,1-5.24,8,10.17,10.17,0,0,1-4.13,2.69,24.61,24.61,0,0,1-6.89.69h-9.49a6.76,6.76,0,0,1-3.14-.5,2.63,2.63,0,0,1-1.15-1.32,18.46,18.46,0,0,1-.33-4.69V35.6h12.3a12.07,12.07,0,0,1,5.2.86,5.23,5.23,0,0,1,2.43,2.35,22.71,22.71,0,0,1,1.16,5.44h1.53V24.05h-1.53q-.25,5-2.4,6.93-1.6,1.5-6.39,1.5h-12.3V9.54ZM288.65,6.37,288,20h1.57a13,13,0,0,1,1.81-6.25,7.68,7.68,0,0,1,3.68-3.12,18.06,18.06,0,0,1,5.57-.6h6.72V54.35q0,4.88-.91,6.24c-1,1.49-2.66,2.23-5,2.23h-2V64.4h23.73V62.82h-1.94a6.08,6.08,0,0,1-4.83-1.8c-.74-.88-1.11-3.11-1.11-6.67V10h7.88a11.46,11.46,0,0,1,5.59,1.18,8.36,8.36,0,0,1,3.4,3.66A16.57,16.57,0,0,1,333.38,20H335l-.62-13.61ZM274.16,62.82a7.37,7.37,0,0,1-3.76-1A3.7,3.7,0,0,1,268.67,60a19.76,19.76,0,0,1-.54-5.82V16.64q0-5.21,1-6.59,1.56-2.09,5-2.09h2V6.37h-24V8h2A7.53,7.53,0,0,1,258,9a3.77,3.77,0,0,1,1.69,1.83,19.85,19.85,0,0,1,.54,5.82V54.13q0,5.22-1,6.59c-1.05,1.4-2.72,2.1-5,2.1h-2V64.4h24V62.82ZM228.33,17.54a46.85,46.85,0,0,1,5.24-6.16,15.21,15.21,0,0,1,4.08-2.65A11.17,11.17,0,0,1,241.49,8V6.37H221.64V8a14.09,14.09,0,0,1,3.92.4,3.39,3.39,0,0,1,1.57,1.27,2.6,2.6,0,0,1,.49,1.58,4.16,4.16,0,0,1-.39,1.75,22,22,0,0,1-2.12,3.17l-10,13.05-8.58-13.31q-2-3-2-4.62a2.8,2.8,0,0,1,1.21-2.18c.81-.66,2.32-1,4.52-1.11V6.37H184.46V8a13.34,13.34,0,0,1,7.22,2.24q3.13,2.13,7.63,8.93l11,16.73-13.2,17.29a34.83,34.83,0,0,1-5.29,5.78,20.88,20.88,0,0,1-4.87,3,11.49,11.49,0,0,1-3.63.9V64.4h19.85V62.82c-2.09-.09-3.5-.43-4.25-1a2.79,2.79,0,0,1-1.11-2.27,4.21,4.21,0,0,1,.37-1.73,23.21,23.21,0,0,1,2.23-3.31L212.15,38.9l9.49,14.89a33.3,33.3,0,0,1,2.27,3.77,5.44,5.44,0,0,1,.37,2,2.71,2.71,0,0,1-.56,1.61,3.39,3.39,0,0,1-1.42,1.18,10.64,10.64,0,0,1-3.55.51V64.4h24V62.82a10.09,10.09,0,0,1-6.13-2.25q-2.41-2-7.41-9.73l-12-18.58ZM111.7,8a13,13,0,0,1,3.63.38A13.24,13.24,0,0,1,119,10.1a25.7,25.7,0,0,1,3.7,3.89V54.35c0,3.25-.31,5.33-.91,6.24q-1.49,2.23-5.08,2.23h-1.94V64.4h19.48V62.82h-2a6.08,6.08,0,0,1-4.83-1.8c-.74-.88-1.11-3.11-1.11-6.67V18.61l36.89,46.73h1.49V16.43q0-4.87.91-6.25c1-1.48,2.66-2.22,5-2.22h2V6.37H153.17V8h1.94a6,6,0,0,1,4.83,1.79q1.16,1.34,1.16,6.68V49.9L126.89,6.37H111.7ZM99,62.82a7.34,7.34,0,0,1-3.76-1A3.7,3.7,0,0,1,93.52,60,19.76,19.76,0,0,1,93,54.13V16.64c0-3.47.35-5.67,1-6.59A5.86,5.86,0,0,1,99,8h2V6.37h-24V8h2a7.57,7.57,0,0,1,3.8,1,3.77,3.77,0,0,1,1.69,1.83,19.85,19.85,0,0,1,.54,5.82V54.13q0,5.22-1,6.59c-1,1.4-2.72,2.1-5,2.1h-2V64.4h24V62.82Z"/></g><polygon class="cls-3" points="4.8 49.91 24.86 72.41 4.8 94.9 31.22 94.9 51.59 71.81 31.22 49.91 4.8 49.91"/><polygon class="cls-4" points="4.8 4.84 24.86 27.34 4.8 49.84 31.22 49.84 51.27 27.34 31.22 4.84 4.8 4.84"/><polygon class="cls-5" points="20.05 77.71 40.1 55.22 20.05 32.72 46.46 32.72 66.52 55.22 46.46 77.71 20.05 77.71"/><polygon class="cls-4" points="24.86 27.34 4.8 49.84 31.22 49.84 51.27 27.34 24.86 27.34"/><polygon class="cls-6" points="20.05 77.71 40.1 55.22 20.05 32.72 46.46 32.72 66.52 55.22 46.46 77.71 20.05 77.71"/></svg>